<svg width="120" height="41" viewBox="0 0 120 41" fill="none" xmlns="http://www.w3.org/2000/svg">
<g id="App Store - Filled">
<g id="Group">
<g id="Group_2">
<path id="Vector" d="M110.471 0.140755H9.87062C9.50392 0.140755 9.14162 0.140755 8.77589 0.142755C8.46974 0.144755 8.16603 0.150565 7.85694 0.155455C7.18545 0.163357 6.51554 0.222431 5.85304 0.332165C5.19146 0.444288 4.55061 0.655671 3.95216 0.959165C3.35444 1.26523 2.80828 1.66292 2.33351 2.13783C1.85624 2.61139 1.4584 3.15877 1.15529 3.75891C0.851338 4.35786 0.640578 4.99969 0.530288 5.66224C0.418948 6.32394 0.359036 6.99328 0.351088 7.66424C0.341808 7.97084 0.340827 8.27845 0.335938 8.58509V31.6994C0.340827 32.0099 0.341808 32.3107 0.351088 32.6213C0.359038 33.2922 0.418951 33.9615 0.530288 34.6232C0.640273 35.2861 0.851046 35.9283 1.15529 36.5275C1.45826 37.1257 1.85616 37.6708 2.33351 38.1418C2.80648 38.6188 3.35299 39.0167 3.95216 39.3205C4.55061 39.6248 5.19139 39.8374 5.85304 39.9513C6.51566 40.0601 7.18549 40.1192 7.85694 40.1281C8.16603 40.1349 8.46974 40.1388 8.77589 40.1388C9.14161 40.1408 9.50394 40.1408 9.87062 40.1408H110.471C110.83 40.1408 111.195 40.1408 111.555 40.1388C111.859 40.1388 112.172 40.1349 112.477 40.1281C113.147 40.1197 113.815 40.0606 114.477 39.9513C115.14 39.8366 115.783 39.624 116.385 39.3205C116.983 39.0166 117.529 38.6186 118.002 38.1418C118.478 37.669 118.877 37.1242 119.184 36.5275C119.486 35.9278 119.694 35.2857 119.803 34.6232C119.914 33.9614 119.976 33.2922 119.988 32.6213C119.992 32.3107 119.992 32.0099 119.992 31.6994C120 31.3361 120 30.9748 120 30.6056V9.67688C120 9.31067 120 8.94739 119.992 8.58509C119.992 8.27845 119.992 7.97084 119.988 7.6642C119.976 6.99318 119.914 6.32399 119.803 5.6622C119.694 5.00004 119.485 4.35826 119.184 3.75887C118.566 2.55595 117.588 1.57678 116.385 0.959075C115.783 0.656322 115.14 0.444995 114.477 0.332075C113.815 0.221858 113.147 0.162763 112.477 0.155315C112.172 0.150435 111.859 0.144575 111.555 0.142625C111.195 0.140625 110.83 0.140625 110.471 0.140625V0.140755Z" fill="#A6A6A6"/>
<path id="Vector_2" d="M8.7808 39.2656C8.47612 39.2656 8.1788 39.2617 7.87651 39.2549C7.2503 39.2468 6.62554 39.1922 6.00737 39.0918C5.43096 38.9925 4.87258 38.8079 4.35063 38.5439C3.83348 38.2822 3.36179 37.9389 2.95363 37.5273C2.53957 37.1206 2.19485 36.6489 1.93312 36.1308C1.66851 35.6094 1.48539 35.0505 1.39012 34.4736C1.28725 33.8537 1.23159 33.2269 1.22362 32.5986C1.21728 32.3877 1.20898 31.6855 1.20898 31.6855V8.58496C1.20898 8.58496 1.21782 7.89355 1.22367 7.69042C1.2313 7.06311 1.28664 6.43728 1.3892 5.81836C1.48464 5.23988 1.66791 4.67937 1.93266 4.15625C2.19343 3.63857 2.53624 3.16649 2.9478 2.75831C3.35891 2.34625 3.83211 2.00123 4.35014 1.73583C4.87089 1.47272 5.42822 1.28936 6.00346 1.1919C6.62366 1.09046 7.25059 1.03562 7.87897 1.02784L8.78129 1.01562H111.55L112.463 1.02833C113.086 1.03572 113.707 1.09007 114.321 1.19091C114.902 1.2896 115.466 1.47424 115.992 1.73877C117.03 2.27361 117.875 3.11979 118.407 4.1587C118.668 4.6782 118.848 5.23413 118.942 5.80761C119.046 6.43162 119.104 7.06236 119.116 7.69483C119.119 7.97802 119.119 8.28222 119.119 8.58496C119.127 8.95996 119.127 9.31689 119.127 9.67675V30.6054C119.127 30.9687 119.127 31.3232 119.119 31.6806C119.119 32.0058 119.119 32.3037 119.115 32.6103C119.104 33.2315 119.046 33.851 118.944 34.4638C118.851 35.0449 118.669 35.6081 118.404 36.1338C118.141 36.6462 117.798 37.1139 117.389 37.5195C116.98 37.9333 116.508 38.2786 115.989 38.542C115.464 38.808 114.902 38.9934 114.321 39.0918C113.703 39.1928 113.078 39.2473 112.452 39.2549C112.159 39.2617 111.853 39.2656 111.555 39.2656L110.471 39.2676L8.7808 39.2656Z" fill="black"/>
</g>
<g id="&#60;Group&#62;">
<g id="&#60;Group&#62;_2">
<g id="&#60;Group&#62;_3">
<path id="&#60;Path&#62;" d="M25.1049 20.4419C25.1157 19.6073 25.3374 18.7889 25.7494 18.0629C26.1614 17.337 26.7504 16.727 27.4615 16.2899C27.0098 15.6447 26.4138 15.1138 25.721 14.7392C25.0282 14.3647 24.2575 14.1568 23.4703 14.1322C21.7911 13.9559 20.1631 15.137 19.3074 15.137C18.4352 15.137 17.1177 14.1497 15.6989 14.1789C14.7813 14.2085 13.8869 14.4754 13.103 14.9534C12.3192 15.4315 11.6725 16.1045 11.226 16.9068C9.29201 20.2552 10.7346 25.1762 12.5872 27.8828C13.5141 29.2082 14.5974 30.6886 16.0148 30.6361C17.4019 30.5786 17.9199 29.7516 19.5942 29.7516C21.253 29.7516 21.739 30.6361 23.1852 30.6028C24.6736 30.5786 25.6114 29.2715 26.5058 27.9336C27.1717 26.9893 27.6842 25.9455 28.0242 24.8411C27.1595 24.4754 26.4215 23.8632 25.9024 23.0809C25.3833 22.2986 25.1059 21.3808 25.1049 20.4419Z" fill="white"/>
<path id="&#60;Path&#62;_2" d="M22.3735 12.3519C23.185 11.3777 23.5848 10.1256 23.488 8.86133C22.2482 8.99155 21.1029 9.58411 20.2804 10.5209C19.8783 10.9786 19.5703 11.511 19.3741 12.0878C19.1778 12.6646 19.0972 13.2744 19.1367 13.8823C19.7569 13.8887 20.3704 13.7543 20.931 13.4892C21.4917 13.2241 21.9849 12.8353 22.3735 12.3519Z" fill="white"/>
</g>
</g>
<g id="Group_3">
<path id="Vector_3" d="M42.6387 27.2803H37.9053L36.7686 30.6367H34.7637L39.2471 18.2188H41.3301L45.8135 30.6367H43.7744L42.6387 27.2803ZM38.3955 25.7315H42.1475L40.2979 20.2842H40.2461L38.3955 25.7315Z" fill="white"/>
<path id="Vector_4" d="M55.4961 26.1101C55.4961 28.9236 53.9903 30.7312 51.7178 30.7312C51.1421 30.7613 50.5697 30.6287 50.0659 30.3485C49.5621 30.0684 49.1473 29.6521 48.8692 29.1472H48.8262V33.6315H46.9678V21.5827H48.7666V23.0886H48.8008C49.0918 22.5861 49.5135 22.1719 50.0211 21.8901C50.5288 21.6082 51.1033 21.4693 51.6836 21.488C53.9814 21.488 55.4961 23.3044 55.4961 26.1101ZM53.586 26.1101C53.586 24.2771 52.6387 23.072 51.1934 23.072C49.7735 23.072 48.8184 24.3025 48.8184 26.1101C48.8184 27.9343 49.7735 29.156 51.1934 29.156C52.6387 29.156 53.586 27.9597 53.586 26.1101Z" fill="white"/>
<path id="Vector_5" d="M65.461 26.1101C65.461 28.9235 63.9551 30.7312 61.6826 30.7312C61.107 30.7613 60.5345 30.6287 60.0307 30.3485C59.5269 30.0684 59.1122 29.652 58.834 29.1472H58.791V33.6315H56.9326V21.5827H58.7314V23.0886H58.7656C59.0566 22.5861 59.4783 22.1719 59.9859 21.8901C60.4936 21.6082 61.0681 21.4693 61.6484 21.488C63.9463 21.488 65.461 23.3044 65.461 26.1101ZM63.5508 26.1101C63.5508 24.2771 62.6035 23.072 61.1582 23.072C59.7383 23.072 58.7832 24.3024 58.7832 26.1101C58.7832 27.9343 59.7383 29.156 61.1582 29.156C62.6035 29.156 63.5508 27.9597 63.5508 26.1101H63.5508Z" fill="white"/>
<path id="Vector_6" d="M72.0469 27.1768C72.1846 28.4083 73.3809 29.2168 75.0157 29.2168C76.5821 29.2168 77.709 28.4082 77.709 27.2979C77.709 26.334 77.0293 25.7569 75.42 25.3613L73.8106 24.9736C71.5303 24.4229 70.4717 23.3564 70.4717 21.626C70.4717 19.4834 72.3389 18.0117 74.9903 18.0117C77.6143 18.0117 79.4131 19.4834 79.4737 21.626H77.5977C77.4854 20.3867 76.4609 19.6387 74.9639 19.6387C73.4668 19.6387 72.4424 20.3955 72.4424 21.4971C72.4424 22.375 73.0967 22.8916 74.6973 23.2871L76.0654 23.623C78.6133 24.2256 79.6719 25.249 79.6719 27.0654C79.6719 29.3886 77.8213 30.8437 74.8779 30.8437C72.124 30.8437 70.2647 29.4228 70.1445 27.1767L72.0469 27.1768Z" fill="white"/>
<path id="Vector_7" d="M83.6826 19.4404V21.583H85.4043V23.0547H83.6826V28.0459C83.6826 28.8213 84.0273 29.1826 84.7842 29.1826C84.9886 29.1791 85.1926 29.1647 85.3955 29.1396V30.6025C85.0552 30.6661 84.7094 30.6949 84.3633 30.6884C82.5303 30.6884 81.8154 30 81.8154 28.2441V23.0547H80.499V21.583H81.8154V19.4404H83.6826Z" fill="white"/>
<path id="Vector_8" d="M86.4014 26.1103C86.4014 23.2617 88.0791 21.4717 90.6953 21.4717C93.3203 21.4717 94.9902 23.2617 94.9902 26.1103C94.9902 28.9668 93.3291 30.749 90.6953 30.749C88.0625 30.749 86.4014 28.9668 86.4014 26.1103ZM93.0967 26.1103C93.0967 24.1562 92.2012 23.0029 90.6953 23.0029C89.1894 23.0029 88.2949 24.165 88.2949 26.1103C88.2949 28.0723 89.1894 29.2168 90.6953 29.2168C92.2012 29.2168 93.0966 28.0723 93.0966 26.1103H93.0967Z" fill="white"/>
<path id="Vector_9" d="M96.5225 21.5826H98.2949V23.1236H98.3379C98.4578 22.6424 98.7398 22.217 99.1364 21.9191C99.533 21.6213 100.02 21.469 100.516 21.4879C100.73 21.4872 100.943 21.5104 101.152 21.5572V23.2955C100.882 23.2129 100.6 23.175 100.317 23.1832C100.047 23.1723 99.7783 23.2199 99.5284 23.3228C99.2786 23.4256 99.0539 23.5814 98.87 23.7793C98.686 23.9772 98.547 24.2125 98.4626 24.4692C98.3782 24.7259 98.3503 24.9978 98.3809 25.2662V30.6363H96.5225L96.5225 21.5826Z" fill="white"/>
<path id="Vector_10" d="M109.721 27.9775C109.471 29.6211 107.87 30.749 105.822 30.749C103.188 30.749 101.554 28.9844 101.554 26.1533C101.554 23.3135 103.197 21.4717 105.744 21.4717C108.249 21.4717 109.824 23.1924 109.824 25.9375V26.5742H103.43V26.6865C103.4 27.0197 103.442 27.3554 103.552 27.6712C103.662 27.9871 103.838 28.2759 104.069 28.5184C104.299 28.7609 104.578 28.9517 104.888 29.078C105.198 29.2043 105.531 29.2633 105.865 29.251C106.304 29.2921 106.745 29.1904 107.122 28.961C107.499 28.7315 107.791 28.3866 107.956 27.9775L109.721 27.9775ZM103.438 25.2754H107.965C107.982 24.9758 107.936 24.676 107.831 24.3948C107.727 24.1136 107.565 23.857 107.357 23.6413C107.148 23.4255 106.897 23.2552 106.62 23.1409C106.342 23.0267 106.044 22.9711 105.744 22.9775C105.442 22.9757 105.142 23.0339 104.861 23.1486C104.581 23.2634 104.327 23.4324 104.113 23.6461C103.898 23.8597 103.728 24.1137 103.613 24.3933C103.497 24.673 103.438 24.9728 103.438 25.2754V25.2754Z" fill="white"/>
</g>
</g>
</g>
<g id="&#60;Group&#62;_4">
<g id="Group_4">
<path id="Vector_11" d="M38.1621 8.87103C38.5517 8.84307 38.9427 8.90193 39.3068 9.04336C39.6709 9.1848 39.9991 9.40528 40.2677 9.6889C40.5363 9.97253 40.7386 10.3122 40.86 10.6835C40.9814 11.0548 41.0188 11.4484 40.9697 11.8359C40.9697 13.7421 39.9395 14.8379 38.1621 14.8379H36.0068V8.87103H38.1621ZM36.9336 13.994H38.0586C38.337 14.0107 38.6156 13.965 38.8741 13.8604C39.1327 13.7558 39.3646 13.5948 39.5531 13.3893C39.7416 13.1837 39.8819 12.9387 39.9638 12.6721C40.0456 12.4055 40.067 12.124 40.0264 11.848C40.0641 11.5732 40.0405 11.2934 39.9574 11.0288C39.8743 10.7641 39.7336 10.5211 39.5456 10.3172C39.3575 10.1132 39.1267 9.95342 38.8696 9.84919C38.6125 9.74495 38.3356 9.69887 38.0586 9.71424H36.9336V13.994Z" fill="white"/>
<path id="Vector_12" d="M42.0169 12.5844C41.9886 12.2885 42.0224 11.9899 42.1163 11.7079C42.2101 11.4258 42.3619 11.1665 42.5618 10.9465C42.7617 10.7265 43.0055 10.5507 43.2773 10.4305C43.5492 10.3102 43.8431 10.248 44.1404 10.248C44.4377 10.248 44.7317 10.3102 45.0035 10.4305C45.2754 10.5507 45.5191 10.7265 45.719 10.9465C45.919 11.1665 46.0707 11.4258 46.1646 11.7079C46.2584 11.9899 46.2923 12.2885 46.264 12.5844C46.2928 12.8806 46.2593 13.1796 46.1658 13.4622C46.0722 13.7447 45.9205 14.0045 45.7205 14.2249C45.5205 14.4453 45.2766 14.6215 45.0045 14.742C44.7324 14.8625 44.438 14.9248 44.1404 14.9248C43.8428 14.9248 43.5485 14.8625 43.2763 14.742C43.0042 14.6215 42.7603 14.4453 42.5603 14.2249C42.3603 14.0045 42.2087 13.7447 42.1151 13.4622C42.0215 13.1796 41.988 12.8806 42.0169 12.5844ZM45.3499 12.5844C45.3499 11.6084 44.9114 11.0376 44.1419 11.0376C43.3694 11.0376 42.9349 11.6084 42.9349 12.5844C42.9349 13.5683 43.3695 14.1347 44.1419 14.1347C44.9114 14.1347 45.3499 13.5644 45.3499 12.5844H45.3499Z" fill="white"/>
<path id="Vector_13" d="M51.9092 14.8379H50.9873L50.0566 11.5215H49.9863L49.0596 14.8379H48.1465L46.9053 10.335H47.8066L48.6133 13.771H48.6797L49.6055 10.335H50.458L51.3838 13.771H51.4541L52.2568 10.335H53.1455L51.9092 14.8379Z" fill="white"/>
<path id="Vector_14" d="M54.1895 10.3345H55.0449V11.0498H55.1113C55.224 10.7929 55.414 10.5776 55.6549 10.4337C55.8957 10.2899 56.1755 10.2249 56.4551 10.2476C56.6742 10.2311 56.8942 10.2642 57.0988 10.3443C57.3034 10.4244 57.4873 10.5495 57.637 10.7103C57.7867 10.8711 57.8983 11.0636 57.9635 11.2734C58.0287 11.4832 58.0458 11.705 58.0137 11.9224V14.8374H57.125V12.1456C57.125 11.4219 56.8106 11.0621 56.1533 11.0621C56.0046 11.0551 55.8561 11.0804 55.718 11.1363C55.58 11.1921 55.4556 11.2771 55.3535 11.3855C55.2514 11.4939 55.1739 11.6231 55.1263 11.7642C55.0788 11.9053 55.0624 12.0551 55.0781 12.2032V14.8374H54.1895L54.1895 10.3345Z" fill="white"/>
<path id="Vector_15" d="M59.4297 8.57715H60.3184V14.8379H59.4297V8.57715Z" fill="white"/>
<path id="Vector_16" d="M61.554 12.5845C61.5257 12.2886 61.5596 11.99 61.6534 11.7079C61.7473 11.4258 61.8991 11.1665 62.099 10.9465C62.299 10.7265 62.5427 10.5507 62.8146 10.4305C63.0865 10.3102 63.3805 10.248 63.6777 10.248C63.975 10.248 64.269 10.3102 64.5409 10.4305C64.8128 10.5507 65.0565 10.7265 65.2565 10.9465C65.4564 11.1665 65.6082 11.4258 65.7021 11.7079C65.7959 11.99 65.8298 12.2886 65.8015 12.5845C65.8303 12.8807 65.7969 13.1797 65.7032 13.4623C65.6096 13.7448 65.4579 14.0046 65.2579 14.225C65.0579 14.4454 64.814 14.6215 64.5419 14.7421C64.2697 14.8626 63.9754 14.9249 63.6777 14.9249C63.3801 14.9249 63.0858 14.8626 62.8136 14.7421C62.5415 14.6215 62.2976 14.4454 62.0976 14.225C61.8976 14.0046 61.7459 13.7448 61.6523 13.4623C61.5586 13.1797 61.5252 12.8807 61.554 12.5845ZM64.887 12.5845C64.887 11.6084 64.4485 11.0376 63.679 11.0376C62.9065 11.0376 62.472 11.6084 62.472 12.5845C62.472 13.5684 62.9065 14.1348 63.679 14.1348C64.4485 14.1348 64.887 13.5645 64.887 12.5845H64.887Z" fill="white"/>
<path id="Vector_17" d="M66.7363 13.5644C66.7363 12.7539 67.3398 12.2866 68.4111 12.2202L69.6309 12.1499V11.7612C69.6309 11.2856 69.3164 11.0171 68.709 11.0171C68.2129 11.0171 67.8691 11.1992 67.7705 11.5176H66.9102C67.001 10.7441 67.7285 10.248 68.75 10.248C69.8789 10.248 70.5156 10.81 70.5156 11.7612V14.8379H69.6602V14.2051H69.5898C69.4471 14.4321 69.2467 14.6171 69.0091 14.7413C68.7715 14.8655 68.5051 14.9245 68.2373 14.9121C68.0483 14.9317 67.8572 14.9116 67.6765 14.8529C67.4957 14.7942 67.3292 14.6982 67.1878 14.5713C67.0464 14.4443 66.9332 14.2891 66.8554 14.1157C66.7776 13.9423 66.7371 13.7545 66.7363 13.5644ZM69.6309 13.1797V12.8032L68.5312 12.8735C67.9111 12.915 67.6299 13.126 67.6299 13.5229C67.6299 13.9282 67.9814 14.164 68.4649 14.164C68.6065 14.1784 68.7496 14.1641 68.8856 14.122C69.0216 14.0799 69.1478 14.0109 69.2565 13.919C69.3653 13.8272 69.4545 13.7144 69.5188 13.5874C69.5831 13.4604 69.6212 13.3217 69.6309 13.1797Z" fill="white"/>
<path id="Vector_18" d="M71.6836 12.5845C71.6836 11.1616 72.415 10.2603 73.5527 10.2603C73.8342 10.2473 74.1134 10.3147 74.358 10.4546C74.6025 10.5945 74.8021 10.8011 74.9336 11.0503H75V8.57715H75.8887V14.8379H75.0371V14.1265H74.9668C74.8252 14.3739 74.6186 14.578 74.3693 14.7165C74.1201 14.8549 73.8377 14.9226 73.5527 14.9121C72.4072 14.9121 71.6836 14.0108 71.6836 12.5845ZM72.6016 12.5845C72.6016 13.5396 73.0518 14.1143 73.8047 14.1143C74.5537 14.1143 75.0166 13.5313 75.0166 12.5884C75.0166 11.6499 74.5489 11.0586 73.8047 11.0586C73.0566 11.0586 72.6016 11.6372 72.6016 12.5845H72.6016Z" fill="white"/>
<path id="Vector_19" d="M79.5657 12.5844C79.5374 12.2885 79.5712 11.9899 79.6651 11.7079C79.7589 11.4258 79.9107 11.1665 80.1106 10.9465C80.3106 10.7265 80.5543 10.5507 80.8261 10.4305C81.098 10.3102 81.392 10.248 81.6892 10.248C81.9865 10.248 82.2805 10.3102 82.5524 10.4305C82.8242 10.5507 83.0679 10.7265 83.2679 10.9465C83.4678 11.1665 83.6196 11.4258 83.7134 11.7079C83.8072 11.9899 83.8411 12.2885 83.8128 12.5844C83.8416 12.8806 83.8082 13.1796 83.7146 13.4622C83.621 13.7447 83.4693 14.0045 83.2693 14.2249C83.0693 14.4453 82.8254 14.6215 82.5533 14.742C82.2812 14.8625 81.9869 14.9248 81.6892 14.9248C81.3916 14.9248 81.0973 14.8625 80.8252 14.742C80.553 14.6215 80.3091 14.4453 80.1092 14.2249C79.9092 14.0045 79.7575 13.7447 79.6639 13.4622C79.5703 13.1796 79.5369 12.8806 79.5657 12.5844ZM82.8987 12.5844C82.8987 11.6084 82.4602 11.0376 81.6907 11.0376C80.9182 11.0376 80.4837 11.6084 80.4837 12.5844C80.4837 13.5683 80.9183 14.1347 81.6907 14.1347C82.4602 14.1347 82.8987 13.5644 82.8987 12.5844Z" fill="white"/>
<path id="Vector_20" d="M85.0059 10.3345H85.8613V11.0498H85.9277C86.0404 10.7929 86.2304 10.5776 86.4713 10.4337C86.7121 10.2899 86.9919 10.2249 87.2715 10.2476C87.4906 10.2311 87.7106 10.2642 87.9152 10.3443C88.1198 10.4244 88.3037 10.5495 88.4534 10.7103C88.6031 10.8711 88.7147 11.0636 88.7799 11.2734C88.8451 11.4832 88.8622 11.705 88.8301 11.9224V14.8374H87.9414V12.1456C87.9414 11.4219 87.627 11.0621 86.9697 11.0621C86.821 11.0551 86.6725 11.0804 86.5344 11.1363C86.3964 11.1921 86.272 11.2771 86.1699 11.3855C86.0678 11.4939 85.9903 11.6231 85.9427 11.7642C85.8952 11.9053 85.8788 12.0551 85.8945 12.2032V14.8374H85.0059V10.3345Z" fill="white"/>
<path id="Vector_21" d="M93.8506 9.21387V10.3555H94.8262V11.104H93.8506V13.4194C93.8506 13.8911 94.0449 14.0977 94.4873 14.0977C94.6006 14.0973 94.7137 14.0904 94.8262 14.0771V14.8174C94.6666 14.8459 94.5049 14.8611 94.3428 14.8628C93.3545 14.8628 92.9609 14.5151 92.9609 13.647V11.104H92.2461V10.3554H92.9609V9.21387H93.8506Z" fill="white"/>
<path id="Vector_22" d="M96.041 8.57715H96.9219V11.0586H96.9922C97.1103 10.7993 97.3055 10.5827 97.5512 10.4383C97.7969 10.294 98.0812 10.2289 98.3652 10.252C98.5831 10.2401 98.801 10.2765 99.0033 10.3585C99.2056 10.4406 99.3873 10.5662 99.5354 10.7266C99.6835 10.8869 99.7944 11.078 99.8602 11.2861C99.926 11.4942 99.945 11.7143 99.916 11.9307V14.8379H99.0264V12.1499C99.0264 11.4307 98.6914 11.0664 98.0635 11.0664C97.9108 11.0539 97.7571 11.0749 97.6134 11.1279C97.4696 11.181 97.3391 11.2648 97.2311 11.3735C97.1232 11.4823 97.0402 11.6133 96.9882 11.7574C96.9361 11.9016 96.9162 12.0553 96.9297 12.208V14.8379H96.0411L96.041 8.57715Z" fill="white"/>
<path id="Vector_23" d="M105.097 13.6221C104.977 14.0337 104.715 14.3897 104.358 14.6278C104.002 14.866 103.573 14.9711 103.146 14.9249C102.849 14.9327 102.555 14.8759 102.282 14.7584C102.01 14.6408 101.766 14.4654 101.568 14.2443C101.37 14.0231 101.223 13.7616 101.136 13.4778C101.049 13.1939 101.026 12.8946 101.066 12.6007C101.027 12.3058 101.051 12.0058 101.137 11.7212C101.224 11.4365 101.371 11.1737 101.567 10.9507C101.764 10.7276 102.007 10.5494 102.278 10.4282C102.55 10.307 102.845 10.2456 103.142 10.2481C104.395 10.2481 105.151 11.1041 105.151 12.5181V12.8282H101.971V12.878C101.957 13.0433 101.978 13.2096 102.032 13.3663C102.086 13.5231 102.173 13.6668 102.286 13.7883C102.399 13.9097 102.536 14.0062 102.688 14.0716C102.84 14.137 103.005 14.1699 103.171 14.168C103.383 14.1935 103.598 14.1553 103.789 14.058C103.98 13.9608 104.138 13.8091 104.242 13.6221L105.097 13.6221ZM101.971 12.171H104.246C104.257 12.0198 104.236 11.868 104.185 11.7253C104.134 11.5826 104.054 11.4521 103.95 11.3423C103.845 11.2324 103.719 11.1456 103.579 11.0874C103.439 11.0293 103.289 11.001 103.137 11.0045C102.984 11.0025 102.831 11.0314 102.689 11.0893C102.546 11.1473 102.417 11.2331 102.308 11.3419C102.2 11.4506 102.114 11.5799 102.056 11.7223C101.998 11.8647 101.969 12.0173 101.971 12.171H101.971Z" fill="white"/>
</g>
</g>
</g>
</svg>
