<svg width="25" height="25" viewBox="0 0 25 25" fill="none" xmlns="http://www.w3.org/2000/svg">
<g id="icon / jam-icons / outline &#38; logos / arrow-right">
<path id="Vector" d="M16.253 10.7975L12.303 6.84754C12.1208 6.65894 12.02 6.40634 12.0223 6.14414C12.0246 5.88195 12.1298 5.63113 12.3152 5.44573C12.5006 5.26032 12.7514 5.15515 13.0136 5.15287C13.2758 5.15059 13.5284 5.25139 13.717 5.43354L19.374 11.0905C19.4672 11.1832 19.5411 11.2934 19.5916 11.4147C19.642 11.536 19.668 11.6661 19.668 11.7975C19.668 11.929 19.642 12.0591 19.5916 12.1804C19.5411 12.3017 19.4672 12.4119 19.374 12.5045L13.717 18.1615C13.6247 18.2571 13.5144 18.3332 13.3924 18.3856C13.2704 18.4381 13.1392 18.4656 13.0064 18.4668C12.8736 18.4679 12.7419 18.4426 12.619 18.3924C12.4961 18.3421 12.3845 18.2678 12.2906 18.1739C12.1967 18.08 12.1225 17.9684 12.0722 17.8455C12.0219 17.7226 11.9966 17.5909 11.9977 17.4581C11.9989 17.3254 12.0265 17.1941 12.0789 17.0721C12.1313 16.9501 12.2075 16.8398 12.303 16.7475L16.253 12.7975H6.66699C6.40178 12.7975 6.14742 12.6922 5.95989 12.5047C5.77235 12.3171 5.66699 12.0628 5.66699 11.7975C5.66699 11.5323 5.77235 11.278 5.95989 11.0904C6.14742 10.9029 6.40178 10.7975 6.66699 10.7975H16.253Z" fill="#E2E8F0"/>
</g>
</svg>
