<svg width="24" height="25" viewBox="0 0 24 25" fill="none" xmlns="http://www.w3.org/2000/svg">
<g id="icon / jam-icons / outline &#38; logos / check">
<path id="Vector" d="M10.4862 16.8708C10.355 16.871 10.2249 16.8454 10.1036 16.7953C9.98229 16.7452 9.87205 16.6716 9.77923 16.5788L5.53723 12.3358C5.44166 12.2436 5.3654 12.1333 5.31291 12.0113C5.26041 11.8894 5.23274 11.7582 5.23149 11.6254C5.23024 11.4926 5.25545 11.3609 5.30565 11.238C5.35584 11.115 5.43001 11.0033 5.52384 10.9094C5.61766 10.8154 5.72926 10.7411 5.85212 10.6907C5.97498 10.6404 6.10664 10.615 6.23942 10.616C6.3722 10.6171 6.50344 10.6446 6.62548 10.6969C6.74752 10.7492 6.85792 10.8253 6.95023 10.9208L10.4852 14.4558L16.8502 8.09276C17.0377 7.90512 17.2921 7.79965 17.5574 7.79956C17.8226 7.79947 18.0771 7.90476 18.2647 8.09226C18.4524 8.27977 18.5578 8.53414 18.5579 8.79941C18.558 9.06468 18.4527 9.31912 18.2652 9.50676L11.1932 16.5788C11.1004 16.6716 10.9902 16.7452 10.8688 16.7953C10.7475 16.8454 10.6175 16.871 10.4862 16.8708Z" fill="#818CF8"/>
</g>
</svg>
