<svg width="25" height="25" viewBox="0 0 25 25" fill="none" xmlns="http://www.w3.org/2000/svg">
<g id="icon / jam-icons / outline &#38; logos / instagram">
<path id="Vector" d="M16.3529 2.14062H8.28294C6.70609 2.14248 5.19437 2.76977 4.07947 3.88486C2.96456 4.99995 2.33753 6.51178 2.33594 8.08862L2.33594 16.1586C2.33779 17.7355 2.96508 19.2472 4.08017 20.3621C5.19527 21.477 6.70709 22.104 8.28394 22.1056H16.3539C17.9308 22.1038 19.4425 21.4765 20.5574 20.3614C21.6723 19.2463 22.2993 17.7345 22.3009 16.1576V8.08763C22.2991 6.51078 21.6718 4.99906 20.5567 3.88415C19.4416 2.76925 17.9298 2.14221 16.3529 2.14063V2.14062ZM20.2929 16.1576C20.2929 16.675 20.191 17.1874 19.993 17.6654C19.795 18.1434 19.5048 18.5778 19.1389 18.9436C18.7731 19.3095 18.3387 19.5997 17.8607 19.7977C17.3827 19.9957 16.8703 20.0976 16.3529 20.0976H8.28294C7.23816 20.0974 6.23626 19.6821 5.49758 18.9433C4.75891 18.2044 4.34394 17.2024 4.34394 16.1576V8.08763C4.3442 7.04285 4.75943 6.04095 5.49829 5.30227C6.23715 4.56359 7.23916 4.14862 8.28394 4.14862H16.3539C17.3987 4.14889 18.4006 4.56411 19.1393 5.30298C19.878 6.04184 20.2929 7.04385 20.2929 8.08862V16.1586V16.1576Z" fill="#E2E8F0"/>
<path id="Vector_2" d="M12.3183 6.95947C10.9497 6.96159 9.63778 7.50626 8.67015 8.47408C7.70252 9.4419 7.1581 10.7539 7.15625 12.1225C7.15784 13.4914 7.70227 14.8038 8.67015 15.7719C9.63803 16.7399 10.9503 17.2846 12.3192 17.2865C13.6883 17.2849 15.0009 16.7403 15.969 15.7722C16.9371 14.8041 17.4817 13.4916 17.4832 12.1225C17.4811 10.7536 16.9362 9.44136 15.9679 8.47367C14.9997 7.50598 13.6872 6.9618 12.3183 6.96047V6.95947ZM12.3183 15.2785C11.4815 15.2785 10.679 14.9461 10.0873 14.3544C9.49565 13.7627 9.16325 12.9602 9.16325 12.1235C9.16325 11.2867 9.49565 10.4842 10.0873 9.89255C10.679 9.30087 11.4815 8.96847 12.3183 8.96847C13.155 8.96847 13.9575 9.30087 14.5492 9.89255C15.1408 10.4842 15.4732 11.2867 15.4732 12.1235C15.4732 12.9602 15.1408 13.7627 14.5492 14.3544C13.9575 14.9461 13.155 15.2785 12.3183 15.2785Z" fill="#E2E8F0"/>
<path id="Vector_3" d="M17.4919 8.23572C18.1751 8.23572 18.7289 7.68189 18.7289 6.99872C18.7289 6.31554 18.1751 5.76172 17.4919 5.76172C16.8087 5.76172 16.2549 6.31554 16.2549 6.99872C16.2549 7.68189 16.8087 8.23572 17.4919 8.23572Z" fill="#E2E8F0"/>
</g>
</svg>
