<svg width="110" height="33" viewBox="0 0 110 33" fill="none" xmlns="http://www.w3.org/2000/svg">
<path d="M10.1659 20.1226V28.2433C10.1659 28.5547 10.0422 28.8532 9.82209 29.0732C9.60205 29.2934 9.3035 29.417 8.99215 29.417C8.68091 29.417 8.38237 29.2934 8.16222 29.0732C7.94207 28.8532 7.81841 28.5547 7.81841 28.2433V20.1338C8.14526 20.3725 8.53703 20.5057 8.94161 20.5157C9.38258 20.5283 9.81467 20.3895 10.1659 20.1226ZM20.1624 17.7751C19.8645 17.7751 19.5788 17.8935 19.3682 18.1041C19.1576 18.3147 19.0392 18.6004 19.0392 18.8983V20.3135C19.0392 20.6249 19.1629 20.9234 19.383 21.1434C19.603 21.3636 19.9016 21.4872 20.2129 21.4872C20.5243 21.4872 20.8228 21.3636 21.0429 21.1434C21.263 20.9234 21.3867 20.6249 21.3867 20.3135V18.9544C21.3954 18.7934 21.3694 18.6323 21.3103 18.4822C21.2512 18.3322 21.1606 18.1965 21.0443 18.0846C20.9282 17.9727 20.7892 17.8872 20.6372 17.8337C20.485 17.7803 20.323 17.7604 20.1624 17.7751ZM5.26874 23.2001C4.86458 23.188 4.47332 23.055 4.14554 22.8182V30.9614C4.14554 31.2743 4.26979 31.5743 4.49097 31.7954C4.71214 32.0166 5.01211 32.1408 5.3249 32.1408C5.63769 32.1408 5.93766 32.0166 6.15883 31.7954C6.38001 31.5743 6.50426 31.2743 6.50426 30.9614V22.8744C6.13748 23.1115 5.70472 23.2256 5.26874 23.2001ZM16.5008 15.3377C16.3486 15.3301 16.1965 15.3536 16.0536 15.4066C15.9108 15.4596 15.7803 15.5411 15.6699 15.6462C15.5596 15.7513 15.4719 15.8776 15.4119 16.0177C15.3521 16.1578 15.3212 16.3086 15.3214 16.4609V22.7172C15.3214 23.03 15.4456 23.33 15.6668 23.5511C15.888 23.7723 16.1879 23.8965 16.5008 23.8965C16.8136 23.8965 17.1136 23.7723 17.3347 23.5511C17.5559 23.33 17.6801 23.03 17.6801 22.7172V16.5395C17.6891 16.3775 17.6628 16.2154 17.6031 16.0644C17.5433 15.9135 17.4517 15.7772 17.3342 15.6651C17.2167 15.553 17.0764 15.4677 16.9229 15.4151C16.7693 15.3624 16.6061 15.3437 16.4446 15.3602L16.5008 15.3377ZM12.7717 17.7414C12.3486 17.7384 11.9368 17.6051 11.5924 17.3595V25.5252C11.5924 25.838 11.7166 26.138 11.9377 26.3591C12.159 26.5803 12.4589 26.7045 12.7717 26.7045C13.0845 26.7045 13.3844 26.5803 13.6057 26.3591C13.8269 26.138 13.9511 25.838 13.9511 25.5252V17.3707C13.5948 17.6361 13.1598 17.7745 12.7156 17.7638L12.7717 17.7414ZM2.71907 23.9976V1.18539C2.71612 0.907314 2.60357 0.641655 2.40589 0.446072C2.20821 0.250489 1.94135 0.140797 1.66326 0.140808H1.41616C1.13808 0.140797 0.871217 0.250489 0.673534 0.446072C0.47585 0.641655 0.363306 0.907314 0.360352 1.18539V23.9976C0.360352 24.2776 0.471593 24.5462 0.669591 24.7442C0.867589 24.9422 1.13615 25.0534 1.41616 25.0534H1.66326C1.94329 25.0534 2.21184 24.9422 2.40983 24.7442C2.60784 24.5462 2.71907 24.2776 2.71907 23.9976ZM5.39229 22.3353H5.14519C4.86517 22.3353 4.59662 22.2241 4.39862 22.026C4.20062 21.828 4.08938 21.5595 4.08938 21.2795V3.90353C4.09234 3.62547 4.20488 3.35979 4.40256 3.16422C4.60024 2.96864 4.86711 2.85894 5.14519 2.85895H5.39229C5.67037 2.85894 5.93724 2.96864 6.13492 3.16422C6.3326 3.35979 6.44515 3.62547 6.4481 3.90353V21.3019C6.4481 21.5819 6.33686 21.8505 6.13886 22.0485C5.94086 22.2465 5.67231 22.3577 5.39229 22.3577V22.3353ZM9.11009 19.662H8.85175C8.57477 19.662 8.30902 19.552 8.11313 19.3561C7.91725 19.1602 7.80718 18.8946 7.80718 18.6175V6.59921C7.80572 6.46109 7.83166 6.32405 7.88344 6.19602C7.93522 6.06799 8.01193 5.95151 8.10909 5.85332C8.20625 5.75513 8.32194 5.67718 8.44942 5.62398C8.57691 5.57079 8.7136 5.54339 8.85175 5.54341H9.11009C9.38819 5.54637 9.65383 5.6589 9.84938 5.85659C10.045 6.05427 10.1547 6.32113 10.1547 6.59921V18.6175C10.1547 18.8946 10.0446 19.1602 9.84871 19.3561C9.65282 19.552 9.38718 19.662 9.11009 19.662ZM12.8279 16.9102H12.592C12.3139 16.9102 12.047 16.8006 11.8494 16.6049C11.6517 16.4094 11.5391 16.1437 11.5362 15.8656V9.39599C11.527 9.25177 11.5474 9.10721 11.5964 8.97119C11.6453 8.83528 11.7216 8.71072 11.8206 8.60548C11.9196 8.50012 12.0391 8.41633 12.1718 8.35905C12.3045 8.30188 12.4475 8.27245 12.592 8.27278H12.8391C13.1191 8.27278 13.3877 8.38398 13.5857 8.582C13.7837 8.78002 13.8949 9.04858 13.8949 9.32859V15.8432C13.8964 15.9828 13.8702 16.1213 13.8178 16.2507C13.7654 16.3801 13.6879 16.4978 13.5896 16.5971C13.4915 16.6962 13.3747 16.775 13.2457 16.8288C13.1169 16.8826 12.9787 16.9102 12.8391 16.9102H12.8279ZM16.5569 14.4953H16.3098C16.0298 14.4953 15.7612 14.3841 15.5632 14.1861C15.3652 13.9881 15.254 13.7195 15.254 13.4395V11.7659C15.2569 11.4878 15.3695 11.2222 15.5671 11.0266C15.7648 10.831 16.0317 10.7214 16.3098 10.7214H16.5569C16.835 10.7214 17.1019 10.831 17.2996 11.0266C17.4973 11.2222 17.6098 11.4878 17.6127 11.7659V13.4395C17.6127 13.7176 17.5031 13.9845 17.3074 14.1822C17.1119 14.3799 16.8462 14.4924 16.5681 14.4953H16.5569Z" fill="#CBD5E1"/>
<path d="M35.0254 21.4338L38.4238 7.07831H40.3223L40.7559 9.46893L37.1348 24.1408H35.0957L35.0254 21.4338ZM33.2793 7.07831L36.0918 21.4338L35.8574 24.1408H33.584L29.7988 7.07831H33.2793ZM43.7441 21.3752L46.5215 7.07831H50.002L46.2285 24.1408H43.9551L43.7441 21.3752ZM41.3887 7.07831L44.8105 21.4924L44.7168 24.1408H42.6777L39.0332 9.45721L39.502 7.07831H41.3887ZM58.334 9.99628L53.6934 24.1408H49.9551L56.2949 7.07831H58.6738L58.334 9.99628ZM62.1895 24.1408L57.5371 9.99628L57.1621 7.07831H59.5645L65.9395 24.1408H62.1895ZM61.9785 17.7892V20.5432H52.9668V17.7892H61.9785ZM72.7129 20.5783L76.7324 7.07831H80.6465L74.7051 24.1408H72.127L72.7129 20.5783ZM69.0098 7.07831L73.0176 20.5783L73.627 24.1408H71.0254L65.1191 7.07831H69.0098ZM93.6895 21.3986V24.1408H84.6074V21.3986H93.6895ZM85.7559 7.07831V24.1408H82.2402V7.07831H85.7559ZM92.5059 14.0275V16.6994H84.6074V14.0275H92.5059ZM93.6777 7.07831V9.83221H84.6074V7.07831H93.6777ZM104.623 19.676C104.623 19.3713 104.576 19.0978 104.482 18.8557C104.396 18.6057 104.232 18.3791 103.99 18.176C103.748 17.965 103.408 17.758 102.971 17.5549C102.533 17.3517 101.967 17.1408 101.271 16.9221C100.498 16.6721 99.7637 16.3908 99.0684 16.0783C98.3809 15.7658 97.7715 15.4025 97.2402 14.9885C96.7168 14.5666 96.3027 14.0783 95.998 13.5236C95.7012 12.9689 95.5527 12.3244 95.5527 11.59C95.5527 10.8791 95.709 10.2346 96.0215 9.65643C96.334 9.0705 96.7715 8.5705 97.334 8.15643C97.8965 7.73456 98.5605 7.41034 99.3262 7.18378C100.1 6.95721 100.947 6.84393 101.869 6.84393C103.127 6.84393 104.225 7.0705 105.162 7.52362C106.1 7.97675 106.826 8.59784 107.342 9.3869C107.865 10.176 108.127 11.0783 108.127 12.0939H104.635C104.635 11.5939 104.529 11.1564 104.318 10.7814C104.115 10.3986 103.803 10.0978 103.381 9.87909C102.967 9.66034 102.443 9.55096 101.811 9.55096C101.201 9.55096 100.693 9.64471 100.287 9.83221C99.8809 10.0119 99.5762 10.258 99.373 10.5705C99.1699 10.8752 99.0684 11.2189 99.0684 11.6017C99.0684 11.8908 99.1387 12.1525 99.2793 12.3869C99.4277 12.6213 99.6465 12.84 99.9355 13.0432C100.225 13.2463 100.58 13.4377 101.002 13.6174C101.424 13.7971 101.912 13.9728 102.467 14.1447C103.396 14.426 104.213 14.7424 104.916 15.0939C105.627 15.4455 106.221 15.84 106.697 16.2775C107.174 16.715 107.533 17.2111 107.775 17.7658C108.018 18.3205 108.139 18.9494 108.139 19.6525C108.139 20.3947 107.994 21.0588 107.705 21.6447C107.416 22.2307 106.998 22.7267 106.451 23.133C105.904 23.5392 105.252 23.8478 104.494 24.0588C103.736 24.2697 102.889 24.3752 101.951 24.3752C101.107 24.3752 100.275 24.2658 99.4551 24.0471C98.6348 23.8205 97.8887 23.4807 97.2168 23.0275C96.5527 22.5744 96.0215 21.9963 95.623 21.2932C95.2246 20.59 95.0254 19.758 95.0254 18.7971H98.5527C98.5527 19.3283 98.6348 19.7775 98.7988 20.1447C98.9629 20.5119 99.1934 20.8088 99.4902 21.0353C99.7949 21.2619 100.154 21.426 100.568 21.5275C100.99 21.6291 101.451 21.6799 101.951 21.6799C102.561 21.6799 103.061 21.5939 103.451 21.4221C103.85 21.2502 104.143 21.0119 104.33 20.7072C104.525 20.4025 104.623 20.0588 104.623 19.676Z" fill="#CBD5E1"/>
</svg>
