<svg width="177" height="33" viewBox="0 0 177 33" fill="none" xmlns="http://www.w3.org/2000/svg">
<path d="M23.4828 26.6253L2.07016 11.8548C-0.099749 10.3581 0.637877 7.24168 3.3437 6.50883L26.1015 0.332115C26.5836 0.158165 27.1001 0.101697 27.6085 0.167403C28.1167 0.233109 28.602 0.419091 29.024 0.709916C29.446 1.00074 29.7926 1.38802 30.0349 1.8396C30.2772 2.29119 30.4083 2.79407 30.4174 3.30649L29.0687 24.2524C28.9087 26.7387 25.6527 28.122 23.4828 26.6253Z" fill="#CBD5E1"/>
<path d="M16.6919 30.2712L4.077 5.60136C3.78864 5.03699 3.66175 4.40393 3.71032 3.77202C3.75888 3.14011 3.98103 2.53388 4.35224 2.02021C4.72346 1.50653 5.22933 1.10535 5.81408 0.860906C6.39882 0.616463 7.0397 0.53826 7.66606 0.634927L31.0445 4.24307C31.5827 4.32616 32.0935 4.53581 32.535 4.85479C32.9764 5.17378 33.3358 5.59299 33.5837 6.07795C33.8315 6.56291 33.9608 7.09976 33.9606 7.64439C33.9605 8.189 33.8311 8.72583 33.5832 9.21071L22.8137 30.2724C22.5245 30.8351 22.0857 31.3073 21.5456 31.6369C21.0055 31.9665 20.3851 32.1408 19.7524 32.1407C19.1197 32.1405 18.4993 31.966 17.9593 31.6363C17.4193 31.3064 16.9808 30.8341 16.6919 30.2712Z" fill="#CBD5E1"/>
<path d="M24.3809 8.86774L19.8921 8.14081L14.3809 9.71092L16.5807 14.2264L21.7319 17.9561C21.8456 18.0374 21.9706 18.0998 22.1024 18.1408L24.059 14.126L24.3809 8.86774Z" fill="#0F172A"/>
<path d="M52.3662 19.676C52.3662 19.3713 52.3193 19.0978 52.2256 18.8557C52.1396 18.6057 51.9756 18.3791 51.7334 18.176C51.4912 17.965 51.1514 17.758 50.7139 17.5549C50.2764 17.3517 49.71 17.1408 49.0146 16.9221C48.2412 16.6721 47.5068 16.3908 46.8115 16.0783C46.124 15.7658 45.5146 15.4025 44.9834 14.9885C44.46 14.5666 44.0459 14.0783 43.7412 13.5236C43.4443 12.9689 43.2959 12.3244 43.2959 11.59C43.2959 10.8791 43.4521 10.2346 43.7646 9.65643C44.0771 9.0705 44.5146 8.5705 45.0771 8.15643C45.6396 7.73456 46.3037 7.41034 47.0693 7.18378C47.8428 6.95721 48.6904 6.84393 49.6123 6.84393C50.8701 6.84393 51.9678 7.0705 52.9053 7.52362C53.8428 7.97675 54.5693 8.59784 55.085 9.3869C55.6084 10.176 55.8701 11.0783 55.8701 12.0939H52.3779C52.3779 11.5939 52.2725 11.1564 52.0615 10.7814C51.8584 10.3986 51.5459 10.0978 51.124 9.87909C50.71 9.66034 50.1865 9.55096 49.5537 9.55096C48.9443 9.55096 48.4365 9.64471 48.0303 9.83221C47.624 10.0119 47.3193 10.258 47.1162 10.5705C46.9131 10.8752 46.8115 11.2189 46.8115 11.6017C46.8115 11.8908 46.8818 12.1525 47.0225 12.3869C47.1709 12.6213 47.3896 12.84 47.6787 13.0432C47.9678 13.2463 48.3232 13.4377 48.7451 13.6174C49.167 13.7971 49.6553 13.9728 50.21 14.1447C51.1396 14.426 51.9561 14.7424 52.6592 15.0939C53.3701 15.4455 53.9639 15.84 54.4404 16.2775C54.917 16.715 55.2764 17.2111 55.5186 17.7658C55.7607 18.3205 55.8818 18.9494 55.8818 19.6525C55.8818 20.3947 55.7373 21.0588 55.4482 21.6447C55.1592 22.2307 54.7412 22.7267 54.1943 23.133C53.6475 23.5392 52.9951 23.8478 52.2373 24.0588C51.4795 24.2697 50.6318 24.3752 49.6943 24.3752C48.8506 24.3752 48.0186 24.2658 47.1982 24.0471C46.3779 23.8205 45.6318 23.4807 44.96 23.0275C44.2959 22.5744 43.7646 21.9963 43.3662 21.2932C42.9678 20.59 42.7686 19.758 42.7686 18.7971H46.2959C46.2959 19.3283 46.3779 19.7775 46.542 20.1447C46.7061 20.5119 46.9365 20.8088 47.2334 21.0353C47.5381 21.2619 47.8975 21.426 48.3115 21.5275C48.7334 21.6291 49.1943 21.6799 49.6943 21.6799C50.3037 21.6799 50.8037 21.5939 51.1943 21.4221C51.5928 21.2502 51.8857 21.0119 52.0732 20.7072C52.2686 20.4025 52.3662 20.0588 52.3662 19.676ZM61.4365 14.0861V24.1408H58.0498V11.4611H61.2256L61.4365 14.0861ZM60.9678 17.3557H60.0303C60.0303 16.4728 60.1357 15.6603 60.3467 14.9182C60.5654 14.1682 60.8818 13.5197 61.2959 12.9728C61.7178 12.4182 62.2373 11.9885 62.8545 11.6838C63.4717 11.3791 64.1865 11.2267 64.999 11.2267C65.5615 11.2267 66.0771 11.3127 66.5459 11.4846C67.0146 11.6486 67.417 11.9103 67.7529 12.2697C68.0967 12.6213 68.3623 13.0822 68.5498 13.6525C68.7373 14.215 68.8311 14.8908 68.8311 15.6799V24.1408H65.4561V16.0549C65.4561 15.4767 65.3779 15.0314 65.2217 14.7189C65.0654 14.4064 64.8428 14.1877 64.5537 14.0627C64.2725 13.9377 63.9326 13.8752 63.5342 13.8752C63.0967 13.8752 62.7139 13.965 62.3857 14.1447C62.0654 14.3244 61.7998 14.5744 61.5889 14.8947C61.3779 15.2072 61.2217 15.5744 61.1201 15.9963C61.0186 16.4182 60.9678 16.8713 60.9678 17.3557ZM68.5146 16.9689L67.3076 17.1213C67.3076 16.2932 67.4092 15.5236 67.6123 14.8127C67.8232 14.1017 68.1318 13.4767 68.5381 12.9377C68.9521 12.3986 69.4639 11.9807 70.0732 11.6838C70.6826 11.3791 71.3857 11.2267 72.1826 11.2267C72.792 11.2267 73.3467 11.3166 73.8467 11.4963C74.3467 11.6682 74.7725 11.9455 75.124 12.3283C75.4834 12.7033 75.7568 13.1955 75.9443 13.8049C76.1396 14.4142 76.2373 15.1603 76.2373 16.0432V24.1408H72.8506V16.0432C72.8506 15.4572 72.7725 15.0119 72.6162 14.7072C72.4678 14.3947 72.249 14.1799 71.96 14.0627C71.6787 13.9377 71.3428 13.8752 70.9521 13.8752C70.5459 13.8752 70.1904 13.9572 69.8857 14.1213C69.5811 14.2775 69.3271 14.4963 69.124 14.7775C68.9209 15.0588 68.7686 15.3869 68.667 15.7619C68.5654 16.1291 68.5146 16.5314 68.5146 16.9689ZM85.6943 21.2814V15.633C85.6943 15.2267 85.6279 14.8791 85.4951 14.59C85.3623 14.2932 85.1553 14.0627 84.874 13.8986C84.6006 13.7346 84.2451 13.6525 83.8076 13.6525C83.4326 13.6525 83.1084 13.7189 82.835 13.8517C82.5615 13.9767 82.3506 14.1603 82.2021 14.4025C82.0537 14.6369 81.9795 14.9142 81.9795 15.2346H78.6045C78.6045 14.6955 78.7295 14.1838 78.9795 13.6994C79.2295 13.215 79.5928 12.7892 80.0693 12.4221C80.5459 12.0471 81.1123 11.7541 81.7686 11.5432C82.4326 11.3322 83.1748 11.2267 83.9951 11.2267C84.9795 11.2267 85.8545 11.3908 86.6201 11.7189C87.3857 12.0471 87.9873 12.5392 88.4248 13.1955C88.8701 13.8517 89.0928 14.6721 89.0928 15.6564V21.0822C89.0928 21.7775 89.1357 22.3478 89.2217 22.7932C89.3076 23.2307 89.4326 23.6135 89.5967 23.9416V24.1408H86.1865C86.0225 23.7971 85.8975 23.3674 85.8115 22.8517C85.7334 22.3283 85.6943 21.8049 85.6943 21.2814ZM86.1396 16.4182L86.1631 18.3283H84.2764C83.8311 18.3283 83.4443 18.3791 83.1162 18.4807C82.7881 18.5822 82.5186 18.7267 82.3076 18.9142C82.0967 19.0939 81.9404 19.3049 81.8389 19.5471C81.7451 19.7892 81.6982 20.0549 81.6982 20.3439C81.6982 20.633 81.7646 20.8947 81.8975 21.1291C82.0303 21.3557 82.2217 21.5353 82.4717 21.6682C82.7217 21.7932 83.0146 21.8557 83.3506 21.8557C83.8584 21.8557 84.2998 21.7541 84.6748 21.551C85.0498 21.3478 85.3389 21.0978 85.542 20.801C85.7529 20.5041 85.8623 20.2228 85.8701 19.9572L86.7607 21.3869C86.6357 21.7072 86.4639 22.0392 86.2451 22.383C86.0342 22.7267 85.7646 23.051 85.4365 23.3557C85.1084 23.6525 84.7139 23.8986 84.2529 24.0939C83.792 24.2814 83.2451 24.3752 82.6123 24.3752C81.8076 24.3752 81.0771 24.215 80.4209 23.8947C79.7725 23.5666 79.2568 23.1174 78.874 22.5471C78.499 21.9689 78.3115 21.3127 78.3115 20.5783C78.3115 19.9142 78.4365 19.3244 78.6865 18.8088C78.9365 18.2932 79.3037 17.8596 79.7881 17.508C80.2803 17.1486 80.8936 16.8791 81.6279 16.6994C82.3623 16.5119 83.2139 16.4182 84.1826 16.4182H86.1396ZM95.0693 14.2267V24.1408H91.6943V11.4611H94.8701L95.0693 14.2267ZM98.8896 11.3791L98.8311 14.508C98.667 14.4846 98.4678 14.465 98.2334 14.4494C98.0068 14.426 97.7998 14.4142 97.6123 14.4142C97.1357 14.4142 96.7217 14.4767 96.3701 14.6017C96.0264 14.7189 95.7373 14.8947 95.5029 15.1291C95.2764 15.3635 95.1045 15.6486 94.9873 15.9846C94.8779 16.3205 94.8154 16.7033 94.7998 17.133L94.1201 16.9221C94.1201 16.1017 94.2021 15.3478 94.3662 14.6603C94.5303 13.965 94.7686 13.3596 95.0811 12.8439C95.4014 12.3283 95.792 11.9299 96.2529 11.6486C96.7139 11.3674 97.2412 11.2267 97.835 11.2267C98.0225 11.2267 98.2139 11.2424 98.4092 11.2736C98.6045 11.2971 98.7646 11.3322 98.8896 11.3791ZM107.28 11.4611V13.8517H99.8975V11.4611H107.28ZM101.726 8.33221H105.101V20.3205C105.101 20.6877 105.147 20.9689 105.241 21.1642C105.343 21.3596 105.491 21.4963 105.687 21.5744C105.882 21.6447 106.128 21.6799 106.425 21.6799C106.636 21.6799 106.823 21.6721 106.987 21.6564C107.159 21.633 107.304 21.6096 107.421 21.5861L107.433 24.0705C107.144 24.1642 106.831 24.2385 106.495 24.2932C106.159 24.3478 105.788 24.3752 105.382 24.3752C104.64 24.3752 103.991 24.2541 103.437 24.0119C102.89 23.7619 102.468 23.3635 102.171 22.8166C101.874 22.2697 101.726 21.551 101.726 20.6603V8.33221ZM112.929 7.07831V24.1408H109.413V7.07831H112.929ZM119.726 14.3674V17.1096H111.968V14.3674H119.726ZM120.546 7.07831V9.83221H111.968V7.07831H120.546ZM125.937 11.4611V24.1408H122.55V11.4611H125.937ZM122.339 8.15643C122.339 7.66425 122.511 7.258 122.854 6.93768C123.198 6.61737 123.659 6.45721 124.237 6.45721C124.808 6.45721 125.265 6.61737 125.608 6.93768C125.96 7.258 126.136 7.66425 126.136 8.15643C126.136 8.64862 125.96 9.05487 125.608 9.37518C125.265 9.6955 124.808 9.85565 124.237 9.85565C123.659 9.85565 123.198 9.6955 122.854 9.37518C122.511 9.05487 122.339 8.64862 122.339 8.15643ZM132.03 14.1682V24.1408H128.655V11.4611H131.819L132.03 14.1682ZM131.538 17.3557H130.624C130.624 16.4182 130.745 15.5744 130.987 14.8244C131.229 14.0666 131.569 13.4221 132.007 12.8908C132.444 12.3517 132.964 11.9416 133.565 11.6603C134.175 11.3713 134.854 11.2267 135.604 11.2267C136.198 11.2267 136.741 11.3127 137.233 11.4846C137.726 11.6564 138.147 11.9299 138.499 12.3049C138.858 12.6799 139.132 13.176 139.319 13.7932C139.515 14.4103 139.612 15.1642 139.612 16.0549V24.1408H136.214V16.0432C136.214 15.4807 136.136 15.0432 135.979 14.7307C135.823 14.4182 135.593 14.1994 135.288 14.0744C134.991 13.9416 134.624 13.8752 134.187 13.8752C133.733 13.8752 133.339 13.965 133.003 14.1447C132.675 14.3244 132.401 14.5744 132.183 14.8947C131.972 15.2072 131.812 15.5744 131.702 15.9963C131.593 16.4182 131.538 16.8713 131.538 17.3557ZM149.667 21.3752V6.14081H153.065V24.1408H150.007L149.667 21.3752ZM141.651 17.9533V17.7072C141.651 16.7385 141.761 15.8596 141.979 15.0705C142.198 14.2736 142.519 13.59 142.94 13.0197C143.362 12.4494 143.882 12.008 144.499 11.6955C145.116 11.383 145.819 11.2267 146.608 11.2267C147.351 11.2267 147.999 11.383 148.554 11.6955C149.116 12.008 149.593 12.4533 149.983 13.0314C150.382 13.6017 150.702 14.2775 150.944 15.0588C151.187 15.8322 151.362 16.6799 151.472 17.6017V18.1408C151.362 19.0236 151.187 19.8439 150.944 20.6017C150.702 21.3596 150.382 22.0236 149.983 22.5939C149.593 23.1564 149.116 23.5939 148.554 23.9064C147.991 24.2189 147.335 24.3752 146.585 24.3752C145.796 24.3752 145.093 24.215 144.476 23.8947C143.866 23.5744 143.351 23.1252 142.929 22.5471C142.515 21.9689 142.198 21.2892 141.979 20.508C141.761 19.7267 141.651 18.8752 141.651 17.9533ZM145.026 17.7072V17.9533C145.026 18.4767 145.065 18.965 145.144 19.4182C145.229 19.8713 145.366 20.2736 145.554 20.6252C145.749 20.9689 145.999 21.2385 146.304 21.4338C146.616 21.6213 146.995 21.715 147.44 21.715C148.019 21.715 148.495 21.5861 148.87 21.3283C149.245 21.0627 149.53 20.6994 149.726 20.2385C149.929 19.7775 150.046 19.2463 150.077 18.6447V17.1096C150.054 16.6174 149.983 16.176 149.866 15.7853C149.757 15.3869 149.593 15.0471 149.374 14.7658C149.163 14.4846 148.897 14.2658 148.577 14.1096C148.265 13.9533 147.894 13.8752 147.464 13.8752C147.026 13.8752 146.651 13.9767 146.339 14.1799C146.026 14.3752 145.772 14.6447 145.577 14.9885C145.39 15.3322 145.249 15.7385 145.155 16.2072C145.069 16.6682 145.026 17.1682 145.026 17.7072ZM161.538 24.3752C160.554 24.3752 159.671 24.2189 158.89 23.9064C158.108 23.5861 157.444 23.1447 156.897 22.5822C156.358 22.0197 155.944 21.3674 155.655 20.6252C155.366 19.8752 155.222 19.0783 155.222 18.2346V17.7658C155.222 16.8049 155.358 15.926 155.632 15.1291C155.905 14.3322 156.296 13.6408 156.804 13.0549C157.319 12.4689 157.944 12.0197 158.679 11.7072C159.413 11.3869 160.241 11.2267 161.163 11.2267C162.062 11.2267 162.858 11.3752 163.554 11.6721C164.249 11.9689 164.831 12.3908 165.3 12.9377C165.776 13.4846 166.136 14.1408 166.378 14.9064C166.62 15.6642 166.741 16.508 166.741 17.4377V18.8439H156.663V16.5939H163.425V16.3361C163.425 15.8674 163.339 15.4494 163.167 15.0822C163.003 14.7072 162.753 14.4103 162.417 14.1916C162.081 13.9728 161.651 13.8635 161.128 13.8635C160.683 13.8635 160.3 13.9611 159.979 14.1564C159.659 14.3517 159.397 14.6252 159.194 14.9767C158.999 15.3283 158.851 15.7424 158.749 16.2189C158.655 16.6877 158.608 17.2033 158.608 17.7658V18.2346C158.608 18.7424 158.679 19.2111 158.819 19.6408C158.968 20.0705 159.175 20.4416 159.44 20.7541C159.714 21.0666 160.042 21.3088 160.425 21.4807C160.815 21.6525 161.257 21.7385 161.749 21.7385C162.358 21.7385 162.925 21.6213 163.448 21.3869C163.979 21.1447 164.437 20.7814 164.819 20.2971L166.46 22.0783C166.194 22.4611 165.831 22.8283 165.37 23.1799C164.917 23.5314 164.37 23.8205 163.729 24.0471C163.089 24.2658 162.358 24.3752 161.538 24.3752ZM172.038 14.2267V24.1408H168.663V11.4611H171.839L172.038 14.2267ZM175.858 11.3791L175.8 14.508C175.636 14.4846 175.437 14.465 175.202 14.4494C174.976 14.426 174.769 14.4142 174.581 14.4142C174.104 14.4142 173.69 14.4767 173.339 14.6017C172.995 14.7189 172.706 14.8947 172.472 15.1291C172.245 15.3635 172.073 15.6486 171.956 15.9846C171.847 16.3205 171.784 16.7033 171.769 17.133L171.089 16.9221C171.089 16.1017 171.171 15.3478 171.335 14.6603C171.499 13.965 171.737 13.3596 172.05 12.8439C172.37 12.3283 172.761 11.9299 173.222 11.6486C173.683 11.3674 174.21 11.2267 174.804 11.2267C174.991 11.2267 175.183 11.2424 175.378 11.2736C175.573 11.2971 175.733 11.3322 175.858 11.3791Z" fill="#CBD5E1"/>
</svg>
