<svg width="167" height="33" viewBox="0 0 167 33" fill="none" xmlns="http://www.w3.org/2000/svg">
<path d="M37.7969 32.1408H50.7146L18.7147 0.140808H5.79688L37.7969 32.1408Z" fill="#CBD5E1"/>
<path d="M25.3506 0.14081L56.198 30.9882V0.140808H47.8501V9.8799L38.1109 0.140808L25.3506 0.14081Z" fill="#CBD5E1"/>
<path d="M0.388672 1.21216V32.1407H8.73649V22.4016L18.4755 32.1407H31.3173L0.388672 1.21216Z" fill="#CBD5E1"/>
<path d="M72.6592 9.99628L68.0186 24.1408H64.2803L70.6201 7.07831H72.999L72.6592 9.99628ZM76.5146 24.1408L71.8623 9.99628L71.4873 7.07831H73.8896L80.2646 24.1408H76.5146ZM76.3037 17.7892V20.5432H67.292V17.7892H76.3037ZM85.0107 14.2267V24.1408H81.6357V11.4611H84.8115L85.0107 14.2267ZM88.8311 11.3791L88.7725 14.508C88.6084 14.4846 88.4092 14.465 88.1748 14.4494C87.9482 14.426 87.7412 14.4142 87.5537 14.4142C87.0771 14.4142 86.6631 14.4767 86.3115 14.6017C85.9678 14.7189 85.6787 14.8947 85.4443 15.1291C85.2178 15.3635 85.0459 15.6486 84.9287 15.9846C84.8193 16.3205 84.7568 16.7033 84.7412 17.133L84.0615 16.9221C84.0615 16.1017 84.1436 15.3478 84.3076 14.6603C84.4717 13.965 84.71 13.3596 85.0225 12.8439C85.3428 12.3283 85.7334 11.9299 86.1943 11.6486C86.6553 11.3674 87.1826 11.2267 87.7764 11.2267C87.9639 11.2267 88.1553 11.2424 88.3506 11.2736C88.5459 11.2971 88.7061 11.3322 88.8311 11.3791ZM97.2217 11.4611V13.8517H89.8389V11.4611H97.2217ZM91.667 8.33221H95.042V20.3205C95.042 20.6877 95.0889 20.9689 95.1826 21.1642C95.2842 21.3596 95.4326 21.4963 95.6279 21.5744C95.8232 21.6447 96.0693 21.6799 96.3662 21.6799C96.5771 21.6799 96.7646 21.6721 96.9287 21.6564C97.1006 21.633 97.2451 21.6096 97.3623 21.5861L97.374 24.0705C97.085 24.1642 96.7725 24.2385 96.4365 24.2932C96.1006 24.3478 95.7295 24.3752 95.3232 24.3752C94.5811 24.3752 93.9326 24.2541 93.3779 24.0119C92.8311 23.7619 92.4092 23.3635 92.1123 22.8166C91.8154 22.2697 91.667 21.551 91.667 20.6603V8.33221ZM105.507 20.5783L109.526 7.07831H113.44L107.499 24.1408H104.921L105.507 20.5783ZM101.804 7.07831L105.812 20.5783L106.421 24.1408H103.819L97.9131 7.07831H101.804ZM120.144 24.3752C119.159 24.3752 118.276 24.2189 117.495 23.9064C116.714 23.5861 116.05 23.1447 115.503 22.5822C114.964 22.0197 114.55 21.3674 114.261 20.6252C113.972 19.8752 113.827 19.0783 113.827 18.2346V17.7658C113.827 16.8049 113.964 15.926 114.237 15.1291C114.511 14.3322 114.901 13.6408 115.409 13.0549C115.925 12.4689 116.55 12.0197 117.284 11.7072C118.019 11.3869 118.847 11.2267 119.769 11.2267C120.667 11.2267 121.464 11.3752 122.159 11.6721C122.854 11.9689 123.437 12.3908 123.905 12.9377C124.382 13.4846 124.741 14.1408 124.983 14.9064C125.226 15.6642 125.347 16.508 125.347 17.4377V18.8439H115.269V16.5939H122.03V16.3361C122.03 15.8674 121.944 15.4494 121.772 15.0822C121.608 14.7072 121.358 14.4103 121.022 14.1916C120.687 13.9728 120.257 13.8635 119.733 13.8635C119.288 13.8635 118.905 13.9611 118.585 14.1564C118.265 14.3517 118.003 14.6252 117.8 14.9767C117.604 15.3283 117.456 15.7424 117.354 16.2189C117.261 16.6877 117.214 17.2033 117.214 17.7658V18.2346C117.214 18.7424 117.284 19.2111 117.425 19.6408C117.573 20.0705 117.78 20.4416 118.046 20.7541C118.319 21.0666 118.647 21.3088 119.03 21.4807C119.421 21.6525 119.862 21.7385 120.354 21.7385C120.964 21.7385 121.53 21.6213 122.054 21.3869C122.585 21.1447 123.042 20.7814 123.425 20.2971L125.065 22.0783C124.8 22.4611 124.437 22.8283 123.976 23.1799C123.522 23.5314 122.976 23.8205 122.335 24.0471C121.694 24.2658 120.964 24.3752 120.144 24.3752ZM130.573 14.1682V24.1408H127.198V11.4611H130.362L130.573 14.1682ZM130.081 17.3557H129.167C129.167 16.4182 129.288 15.5744 129.53 14.8244C129.772 14.0666 130.112 13.4221 130.55 12.8908C130.987 12.3517 131.507 11.9416 132.108 11.6603C132.718 11.3713 133.397 11.2267 134.147 11.2267C134.741 11.2267 135.284 11.3127 135.776 11.4846C136.269 11.6564 136.69 11.9299 137.042 12.3049C137.401 12.6799 137.675 13.176 137.862 13.7932C138.058 14.4103 138.155 15.1642 138.155 16.0549V24.1408H134.757V16.0432C134.757 15.4807 134.679 15.0432 134.522 14.7307C134.366 14.4182 134.136 14.1994 133.831 14.0744C133.534 13.9416 133.167 13.8752 132.729 13.8752C132.276 13.8752 131.882 13.965 131.546 14.1447C131.218 14.3244 130.944 14.5744 130.726 14.8947C130.515 15.2072 130.354 15.5744 130.245 15.9963C130.136 16.4182 130.081 16.8713 130.081 17.3557ZM148.222 21.1057V11.4611H151.597V24.1408H148.421L148.222 21.1057ZM148.597 18.5041L149.593 18.4807C149.593 19.3244 149.495 20.1096 149.3 20.8361C149.104 21.5549 148.812 22.1799 148.421 22.7111C148.03 23.2346 147.538 23.6447 146.944 23.9416C146.351 24.2307 145.651 24.3752 144.847 24.3752C144.229 24.3752 143.659 24.2892 143.136 24.1174C142.62 23.9377 142.175 23.6603 141.8 23.2853C141.433 22.9025 141.144 22.4142 140.933 21.8205C140.729 21.2189 140.628 20.4963 140.628 19.6525V11.4611H144.003V19.676C144.003 20.051 144.046 20.3674 144.132 20.6252C144.226 20.883 144.354 21.0939 144.519 21.258C144.683 21.4221 144.874 21.5392 145.093 21.6096C145.319 21.6799 145.569 21.715 145.843 21.715C146.538 21.715 147.085 21.5744 147.483 21.2932C147.89 21.0119 148.175 20.6291 148.339 20.1447C148.511 19.6525 148.597 19.1057 148.597 18.5041ZM160.011 24.3752C159.026 24.3752 158.144 24.2189 157.362 23.9064C156.581 23.5861 155.917 23.1447 155.37 22.5822C154.831 22.0197 154.417 21.3674 154.128 20.6252C153.839 19.8752 153.694 19.0783 153.694 18.2346V17.7658C153.694 16.8049 153.831 15.926 154.104 15.1291C154.378 14.3322 154.769 13.6408 155.276 13.0549C155.792 12.4689 156.417 12.0197 157.151 11.7072C157.886 11.3869 158.714 11.2267 159.636 11.2267C160.534 11.2267 161.331 11.3752 162.026 11.6721C162.722 11.9689 163.304 12.3908 163.772 12.9377C164.249 13.4846 164.608 14.1408 164.851 14.9064C165.093 15.6642 165.214 16.508 165.214 17.4377V18.8439H155.136V16.5939H161.897V16.3361C161.897 15.8674 161.812 15.4494 161.64 15.0822C161.476 14.7072 161.226 14.4103 160.89 14.1916C160.554 13.9728 160.124 13.8635 159.601 13.8635C159.155 13.8635 158.772 13.9611 158.452 14.1564C158.132 14.3517 157.87 14.6252 157.667 14.9767C157.472 15.3283 157.323 15.7424 157.222 16.2189C157.128 16.6877 157.081 17.2033 157.081 17.7658V18.2346C157.081 18.7424 157.151 19.2111 157.292 19.6408C157.44 20.0705 157.647 20.4416 157.913 20.7541C158.187 21.0666 158.515 21.3088 158.897 21.4807C159.288 21.6525 159.729 21.7385 160.222 21.7385C160.831 21.7385 161.397 21.6213 161.921 21.3869C162.452 21.1447 162.909 20.7814 163.292 20.2971L164.933 22.0783C164.667 22.4611 164.304 22.8283 163.843 23.1799C163.39 23.5314 162.843 23.8205 162.202 24.0471C161.562 24.2658 160.831 24.3752 160.011 24.3752Z" fill="#CBD5E1"/>
</svg>
