<svg width="134" height="33" viewBox="0 0 134 33" fill="none" xmlns="http://www.w3.org/2000/svg">
<path fill-rule="evenodd" clip-rule="evenodd" d="M16.96 32.1408C25.7966 32.1408 32.96 24.9774 32.96 16.1408C32.96 7.30426 25.7966 0.140808 16.96 0.140808C8.1234 0.140808 0.959961 7.30426 0.959961 16.1408C0.959961 24.9774 8.1234 32.1408 16.96 32.1408ZM21.9514 7.59429C22.1944 6.73125 21.3569 6.22092 20.592 6.76585L9.91446 14.3725C9.08494 14.9634 9.21542 16.1408 10.1105 16.1408H12.9221V16.119H18.402L13.9369 17.6945L11.9685 24.6874C11.7256 25.5504 12.563 26.0607 13.328 25.5158L24.0055 17.9092C24.835 17.3182 24.7045 16.1408 23.8095 16.1408H19.5457L21.9514 7.59429Z" fill="#CBD5E1"/>
<path d="M54.8232 21.3986V24.1408H42.7295V21.3986H54.8232ZM54.6475 9.03534L44.2881 24.1408H41.8154V22.1252L52.2568 7.07831H54.6475V9.03534ZM53.4404 7.07831V9.83221H41.8271V7.07831H53.4404ZM56.0537 17.9299V17.6838C56.0537 16.7541 56.1865 15.8986 56.4521 15.1174C56.7178 14.3283 57.1045 13.6447 57.6123 13.0666C58.1201 12.4885 58.7451 12.0392 59.4873 11.7189C60.2295 11.3908 61.0811 11.2267 62.042 11.2267C63.0029 11.2267 63.8584 11.3908 64.6084 11.7189C65.3584 12.0392 65.9873 12.4885 66.4951 13.0666C67.0107 13.6447 67.4014 14.3283 67.667 15.1174C67.9326 15.8986 68.0654 16.7541 68.0654 17.6838V17.9299C68.0654 18.8517 67.9326 19.7072 67.667 20.4963C67.4014 21.2775 67.0107 21.9611 66.4951 22.5471C65.9873 23.1252 65.3623 23.5744 64.6201 23.8947C63.8779 24.215 63.0264 24.3752 62.0654 24.3752C61.1045 24.3752 60.249 24.215 59.499 23.8947C58.7568 23.5744 58.1279 23.1252 57.6123 22.5471C57.1045 21.9611 56.7178 21.2775 56.4521 20.4963C56.1865 19.7072 56.0537 18.8517 56.0537 17.9299ZM59.4287 17.6838V17.9299C59.4287 18.4611 59.4756 18.9572 59.5693 19.4182C59.6631 19.8791 59.8115 20.2853 60.0146 20.6369C60.2256 20.9807 60.499 21.2502 60.835 21.4455C61.1709 21.6408 61.5811 21.7385 62.0654 21.7385C62.5342 21.7385 62.9365 21.6408 63.2725 21.4455C63.6084 21.2502 63.8779 20.9807 64.0811 20.6369C64.2842 20.2853 64.4326 19.8791 64.5264 19.4182C64.6279 18.9572 64.6787 18.4611 64.6787 17.9299V17.6838C64.6787 17.1682 64.6279 16.6838 64.5264 16.2307C64.4326 15.7697 64.2803 15.3635 64.0693 15.0119C63.8662 14.6525 63.5967 14.3713 63.2607 14.1682C62.9248 13.965 62.5186 13.8635 62.042 13.8635C61.5654 13.8635 61.1592 13.965 60.8232 14.1682C60.4951 14.3713 60.2256 14.6525 60.0146 15.0119C59.8115 15.3635 59.6631 15.7697 59.5693 16.2307C59.4756 16.6838 59.4287 17.1682 59.4287 17.6838ZM69.6006 17.9299V17.6838C69.6006 16.7541 69.7334 15.8986 69.999 15.1174C70.2646 14.3283 70.6514 13.6447 71.1592 13.0666C71.667 12.4885 72.292 12.0392 73.0342 11.7189C73.7764 11.3908 74.6279 11.2267 75.5889 11.2267C76.5498 11.2267 77.4053 11.3908 78.1553 11.7189C78.9053 12.0392 79.5342 12.4885 80.042 13.0666C80.5576 13.6447 80.9482 14.3283 81.2139 15.1174C81.4795 15.8986 81.6123 16.7541 81.6123 17.6838V17.9299C81.6123 18.8517 81.4795 19.7072 81.2139 20.4963C80.9482 21.2775 80.5576 21.9611 80.042 22.5471C79.5342 23.1252 78.9092 23.5744 78.167 23.8947C77.4248 24.215 76.5732 24.3752 75.6123 24.3752C74.6514 24.3752 73.7959 24.215 73.0459 23.8947C72.3037 23.5744 71.6748 23.1252 71.1592 22.5471C70.6514 21.9611 70.2646 21.2775 69.999 20.4963C69.7334 19.7072 69.6006 18.8517 69.6006 17.9299ZM72.9756 17.6838V17.9299C72.9756 18.4611 73.0225 18.9572 73.1162 19.4182C73.21 19.8791 73.3584 20.2853 73.5615 20.6369C73.7725 20.9807 74.0459 21.2502 74.3818 21.4455C74.7178 21.6408 75.1279 21.7385 75.6123 21.7385C76.0811 21.7385 76.4834 21.6408 76.8193 21.4455C77.1553 21.2502 77.4248 20.9807 77.6279 20.6369C77.8311 20.2853 77.9795 19.8791 78.0732 19.4182C78.1748 18.9572 78.2256 18.4611 78.2256 17.9299V17.6838C78.2256 17.1682 78.1748 16.6838 78.0732 16.2307C77.9795 15.7697 77.8271 15.3635 77.6162 15.0119C77.4131 14.6525 77.1436 14.3713 76.8076 14.1682C76.4717 13.965 76.0654 13.8635 75.5889 13.8635C75.1123 13.8635 74.7061 13.965 74.3701 14.1682C74.042 14.3713 73.7725 14.6525 73.5615 15.0119C73.3584 15.3635 73.21 15.7697 73.1162 16.2307C73.0225 16.6838 72.9756 17.1682 72.9756 17.6838ZM87.0615 14.0861V24.1408H83.6748V11.4611H86.8506L87.0615 14.0861ZM86.5928 17.3557H85.6553C85.6553 16.4728 85.7607 15.6603 85.9717 14.9182C86.1904 14.1682 86.5068 13.5197 86.9209 12.9728C87.3428 12.4182 87.8623 11.9885 88.4795 11.6838C89.0967 11.3791 89.8115 11.2267 90.624 11.2267C91.1865 11.2267 91.7021 11.3127 92.1709 11.4846C92.6396 11.6486 93.042 11.9103 93.3779 12.2697C93.7217 12.6213 93.9873 13.0822 94.1748 13.6525C94.3623 14.215 94.4561 14.8908 94.4561 15.6799V24.1408H91.0811V16.0549C91.0811 15.4767 91.0029 15.0314 90.8467 14.7189C90.6904 14.4064 90.4678 14.1877 90.1787 14.0627C89.8975 13.9377 89.5576 13.8752 89.1592 13.8752C88.7217 13.8752 88.3389 13.965 88.0107 14.1447C87.6904 14.3244 87.4248 14.5744 87.2139 14.8947C87.0029 15.2072 86.8467 15.5744 86.7451 15.9963C86.6436 16.4182 86.5928 16.8713 86.5928 17.3557ZM94.1396 16.9689L92.9326 17.1213C92.9326 16.2932 93.0342 15.5236 93.2373 14.8127C93.4482 14.1017 93.7568 13.4767 94.1631 12.9377C94.5771 12.3986 95.0889 11.9807 95.6982 11.6838C96.3076 11.3791 97.0107 11.2267 97.8076 11.2267C98.417 11.2267 98.9717 11.3166 99.4717 11.4963C99.9717 11.6682 100.397 11.9455 100.749 12.3283C101.108 12.7033 101.382 13.1955 101.569 13.8049C101.765 14.4142 101.862 15.1603 101.862 16.0432V24.1408H98.4756V16.0432C98.4756 15.4572 98.3975 15.0119 98.2412 14.7072C98.0928 14.3947 97.874 14.1799 97.585 14.0627C97.3037 13.9377 96.9678 13.8752 96.5771 13.8752C96.1709 13.8752 95.8154 13.9572 95.5107 14.1213C95.2061 14.2775 94.9521 14.4963 94.749 14.7775C94.5459 15.0588 94.3936 15.3869 94.292 15.7619C94.1904 16.1291 94.1396 16.5314 94.1396 16.9689ZM110.312 24.3752C109.327 24.3752 108.444 24.2189 107.663 23.9064C106.882 23.5861 106.218 23.1447 105.671 22.5822C105.132 22.0197 104.718 21.3674 104.429 20.6252C104.14 19.8752 103.995 19.0783 103.995 18.2346V17.7658C103.995 16.8049 104.132 15.926 104.405 15.1291C104.679 14.3322 105.069 13.6408 105.577 13.0549C106.093 12.4689 106.718 12.0197 107.452 11.7072C108.187 11.3869 109.015 11.2267 109.937 11.2267C110.835 11.2267 111.632 11.3752 112.327 11.6721C113.022 11.9689 113.604 12.3908 114.073 12.9377C114.55 13.4846 114.909 14.1408 115.151 14.9064C115.394 15.6642 115.515 16.508 115.515 17.4377V18.8439H105.437V16.5939H112.198V16.3361C112.198 15.8674 112.112 15.4494 111.94 15.0822C111.776 14.7072 111.526 14.4103 111.19 14.1916C110.854 13.9728 110.425 13.8635 109.901 13.8635C109.456 13.8635 109.073 13.9611 108.753 14.1564C108.433 14.3517 108.171 14.6252 107.968 14.9767C107.772 15.3283 107.624 15.7424 107.522 16.2189C107.429 16.6877 107.382 17.2033 107.382 17.7658V18.2346C107.382 18.7424 107.452 19.2111 107.593 19.6408C107.741 20.0705 107.948 20.4416 108.214 20.7541C108.487 21.0666 108.815 21.3088 109.198 21.4807C109.589 21.6525 110.03 21.7385 110.522 21.7385C111.132 21.7385 111.698 21.6213 112.222 21.3869C112.753 21.1447 113.21 20.7814 113.593 20.2971L115.233 22.0783C114.968 22.4611 114.604 22.8283 114.144 23.1799C113.69 23.5314 113.144 23.8205 112.503 24.0471C111.862 24.2658 111.132 24.3752 110.312 24.3752ZM120.812 14.2267V24.1408H117.437V11.4611H120.612L120.812 14.2267ZM124.632 11.3791L124.573 14.508C124.409 14.4846 124.21 14.465 123.976 14.4494C123.749 14.426 123.542 14.4142 123.354 14.4142C122.878 14.4142 122.464 14.4767 122.112 14.6017C121.769 14.7189 121.479 14.8947 121.245 15.1291C121.019 15.3635 120.847 15.6486 120.729 15.9846C120.62 16.3205 120.558 16.7033 120.542 17.133L119.862 16.9221C119.862 16.1017 119.944 15.3478 120.108 14.6603C120.272 13.965 120.511 13.3596 120.823 12.8439C121.144 12.3283 121.534 11.9299 121.995 11.6486C122.456 11.3674 122.983 11.2267 123.577 11.2267C123.765 11.2267 123.956 11.2424 124.151 11.2736C124.347 11.2971 124.507 11.3322 124.632 11.3791ZM129.601 14.2267V24.1408H126.226V11.4611H129.401L129.601 14.2267ZM133.421 11.3791L133.362 14.508C133.198 14.4846 132.999 14.465 132.765 14.4494C132.538 14.426 132.331 14.4142 132.144 14.4142C131.667 14.4142 131.253 14.4767 130.901 14.6017C130.558 14.7189 130.269 14.8947 130.034 15.1291C129.808 15.3635 129.636 15.6486 129.519 15.9846C129.409 16.3205 129.347 16.7033 129.331 17.133L128.651 16.9221C128.651 16.1017 128.733 15.3478 128.897 14.6603C129.062 13.965 129.3 13.3596 129.612 12.8439C129.933 12.3283 130.323 11.9299 130.784 11.6486C131.245 11.3674 131.772 11.2267 132.366 11.2267C132.554 11.2267 132.745 11.2424 132.94 11.2736C133.136 11.2971 133.296 11.3322 133.421 11.3791Z" fill="#CBD5E1"/>
</svg>
