<svg width="25" height="25" viewBox="0 0 25 25" fill="none" xmlns="http://www.w3.org/2000/svg">
<g id="icon / jam-icons / outline &#38; logos / twitter">
<path id="Vector" d="M22.3359 6.04779C21.5863 6.37517 20.7924 6.58982 19.9799 6.68479C20.8327 6.18402 21.474 5.38989 21.7839 4.45079C20.9759 4.92112 20.0947 5.25239 19.1769 5.43079C18.7905 5.02599 18.3256 4.70418 17.8107 4.48497C17.2958 4.26576 16.7416 4.15375 16.1819 4.15579C13.9159 4.15579 12.0789 5.96579 12.0789 8.19579C12.0789 8.51179 12.1149 8.82079 12.1849 9.11579C10.5595 9.03848 8.96805 8.6232 7.51211 7.89643C6.05616 7.16966 4.7677 6.14737 3.72894 4.89479C3.36476 5.50919 3.17335 6.21057 3.17494 6.92479C3.17563 7.59275 3.34277 8.25002 3.66123 8.83718C3.97969 9.42435 4.43944 9.9229 4.99894 10.2878C4.34842 10.2668 3.71196 10.0931 3.14094 9.78079V9.83079C3.14094 11.7888 4.55594 13.4218 6.43094 13.7938C6.07855 13.8873 5.71552 13.9347 5.35094 13.9348C5.08594 13.9348 4.82894 13.9098 4.57794 13.8598C4.84602 14.6677 5.35904 15.3721 6.04576 15.8751C6.73247 16.3782 7.55878 16.6549 8.40994 16.6668C6.95001 17.7913 5.15776 18.3988 3.31494 18.3938C2.98294 18.3938 2.65694 18.3738 2.33594 18.3378C4.21719 19.5285 6.39853 20.1591 8.62494 20.1558C16.1719 20.1558 20.2979 13.9988 20.2979 8.65979L20.2839 8.13679C21.0888 7.57046 21.7841 6.86264 22.3359 6.04779Z" fill="#E2E8F0"/>
</g>
</svg>
